# Blender v2.75 (sub 0) OBJ File: ''
# www.blender.org
mtllib car collide.mtl
o Cube_Cube.001
v -1.195409 -0.024191 2.954079
v -1.195409 1.775834 2.954079
v -1.170554 0.000586 -2.446317
v -1.170554 1.772553 -2.446317
v 1.143267 -0.024191 2.954079
v 1.143267 1.775834 2.954079
v 1.131667 0.000586 -2.446317
v 1.131667 1.772553 -2.446317
vt 0.000000 0.000000
vt 1.000000 0.000000
vt 1.000000 1.000000
vt 0.000000 1.000000
vn -1.000000 0.000000 -0.004600
vn 0.000000 0.000000 -1.000000
vn 1.000000 0.000000 -0.002100
vn 0.000000 0.000000 1.000000
vn 0.000000 -1.000000 -0.004600
vn 0.000000 1.000000 -0.000600
usemtl None
s off
f 2/1/1 4/2/1 3/3/1 1/4/1
f 4/1/2 8/2/2 7/3/2 3/4/2
f 8/1/3 6/2/3 5/3/3 7/4/3
f 6/1/4 2/2/4 1/3/4 5/4/4
f 1/1/5 3/2/5 7/3/5 5/4/5
f 6/1/6 8/2/6 4/3/6 2/4/6
