# Blender v2.75 (sub 0) OBJ File: ''
# www.blender.org
mtllib house collide.mtl
o Cube_Cube.001
v -10.268391 0.880008 11.957243
v -10.268391 20.880009 11.957243
v -10.268391 0.880008 -8.042757
v -10.268391 20.880009 -8.042757
v 19.546396 0.880008 11.957243
v 19.546396 20.880009 11.957243
v 19.546396 0.880008 -8.042757
v 19.546396 20.880009 -8.042757
vt 0.000000 0.000000
vt 0.000100 0.999900
vt 0.000100 0.000100
vt 0.999900 0.000100
vt 0.999900 0.999900
vn -1.000000 0.000000 0.000000
vn 0.000000 0.000000 -1.000000
vn 1.000000 0.000000 0.000000
vn 0.000000 0.000000 1.000000
vn 0.000000 -1.000000 0.000000
vn 0.000000 1.000000 0.000000
usemtl None
s off
f 4/1/1 3/1/1 1/1/1
f 8/1/2 7/1/2 3/1/2
f 6/2/3 5/3/3 7/4/3
f 2/1/4 1/1/4 5/1/4
f 3/1/5 7/1/5 5/1/5
f 8/1/6 4/1/6 2/1/6
f 2/1/1 4/1/1 1/1/1
f 4/1/2 8/1/2 3/1/2
f 8/5/3 6/2/3 7/4/3
f 6/1/4 2/1/4 5/1/4
f 1/1/5 3/1/5 5/1/5
f 6/1/6 8/1/6 2/1/6
