# Blender v2.75 (sub 0) OBJ File: ''
# www.blender.org
v 2.801834 0.103837 -1.644869
v 2.801834 0.103837 2.251668
v -2.764154 0.103837 2.251667
v -2.764154 11.748663 -2.820679
v -2.764155 11.748663 1.075858
v 2.801834 11.748663 1.075859
v 2.801835 11.748663 -2.820678
v -2.764154 0.103837 -1.644870
vt 0.000000 0.000000
vt 1.000000 0.000000
vt 1.000000 1.000000
vt 0.000000 1.000000
vn 0.000000 -1.000000 -0.000000
vn 0.000000 1.000000 0.000000
vn 1.000000 -0.000000 0.000000
vn -0.000000 0.100500 0.994900
vn -1.000000 -0.000000 -0.000000
vn 0.000000 -0.100500 -0.994900
s off
f 1/1/1 2/2/1 3/3/1
f 4/2/2 5/3/2 6/4/2
f 1/1/3 7/2/3 6/3/3
f 6/2/4 5/3/4 3/4/4
f 5/2/5 4/3/5 8/4/5
f 1/2/6 8/3/6 4/4/6
f 8/4/1 1/1/1 3/3/1
f 7/1/2 4/2/2 6/4/2
f 2/4/3 1/1/3 6/3/3
f 2/1/4 6/2/4 3/4/4
f 3/1/5 5/2/5 8/4/5
f 7/1/6 1/2/6 4/4/6
